<svg xmlns:dc="http://purl.org/dc/elements/1.1/" xmlns:cc="http://creativecommons.org/ns#" xmlns:rdf="http://www.w3.org/1999/02/22-rdf-syntax-ns#" xmlns:svg="http://www.w3.org/2000/svg" xmlns="http://www.w3.org/2000/svg" xmlns:sodipodi="http://sodipodi.sourceforge.net/DTD/sodipodi-0.dtd" xmlns:inkscape="http://www.inkscape.org/namespaces/inkscape" version="1.1" x="0px" y="0px" viewBox="0 0 100 125"><g transform="translate(0,-952.36218)"><path style="font-size:medium;font-style:normal;font-variant:normal;font-weight:normal;font-stretch:normal;text-indent:0;text-align:start;text-decoration:none;line-height:normal;letter-spacing:normal;word-spacing:normal;text-transform:none;direction:ltr;block-progression:tb;writing-mode:lr-tb;text-anchor:start;baseline-shift:baseline;opacity:1;color:#000000;fill:#000000;fill-opacity:1;stroke:none;stroke-width:4;marker:none;visibility:visible;display:inline;overflow:visible;enable-background:accumulate;font-family:Sans;-inkscape-font-specification:Sans" d="M 15.90625 21.96875 A 2.0002 2.0002 0 0 0 14.125 24 L 14.125 27.6875 C 9.5103357 28.632924 6 32.758557 6 37.6875 C 6 43.30833 10.559956 47.90625 16.125 47.90625 C 21.690043 47.90625 26.25 43.30833 26.25 37.6875 C 26.25 32.758557 22.739664 28.632924 18.125 27.6875 L 18.125 24 A 2.0002 2.0002 0 0 0 15.90625 21.96875 z M 49.78125 21.96875 A 2.0002 2.0002 0 0 0 48 24 L 48 47.46875 A 2.0002 2.0002 0 1 0 52 47.46875 L 52 24 A 2.0002 2.0002 0 0 0 49.78125 21.96875 z M 83.65625 21.96875 A 2.0002 2.0002 0 0 0 81.875 24 L 81.875 40 C 77.260336 40.945423 73.75 45.071084 73.75 50 C 73.75 55.6209 78.309956 60.21875 83.875 60.21875 C 89.440043 60.21875 94 55.6209 94 50 C 94 45.071084 90.489664 40.945423 85.875 40 L 85.875 24 A 2.0002 2.0002 0 0 0 83.65625 21.96875 z M 16.125 31.46875 C 19.539038 31.46875 22.28125 34.23924 22.28125 37.6875 C 22.28125 41.13576 19.539038 43.875 16.125 43.875 C 12.710962 43.875 10 41.13576 10 37.6875 C 10 34.23924 12.710962 31.46875 16.125 31.46875 z M 83.875 43.8125 C 87.289038 43.8125 90 46.55177 90 50 C 90 53.4483 87.289038 56.1875 83.875 56.1875 C 80.460962 56.1875 77.71875 53.4483 77.71875 50 C 77.71875 46.55177 80.460962 43.8125 83.875 43.8125 z M 15.90625 51.40625 A 2.0002 2.0002 0 0 0 14.125 53.4375 L 14.125 76 A 2.0002 2.0002 0 1 0 18.125 76 L 18.125 53.4375 A 2.0002 2.0002 0 0 0 15.90625 51.40625 z M 50 52.09375 C 44.434956 52.09375 39.875 56.6917 39.875 62.3125 C 39.875 67.241504 43.385336 71.367089 48 72.3125 L 48 76 A 2.0002 2.0002 0 1 0 52 76 L 52 72.3125 C 56.614664 71.367089 60.125 67.241504 60.125 62.3125 C 60.125 56.6917 55.565043 52.09375 50 52.09375 z M 50 56.125 C 53.414038 56.125 56.125 58.8643 56.125 62.3125 C 56.125 65.7608 53.414038 68.53125 50 68.53125 C 46.585962 68.53125 43.875 65.7608 43.875 62.3125 C 43.875 58.8643 46.585962 56.125 50 56.125 z M 83.84375 62.25 A 2.0002 2.0002 0 0 0 81.875 64.28125 L 81.875 76 A 2.0002 2.0002 0 1 0 85.875 76 L 85.875 64.28125 A 2.0002 2.0002 0 0 0 83.84375 62.25 z " transform="translate(0,952.36218)"/></g><text x="0" y="115" fill="#000000" font-size="5px" font-weight="bold" font-family="'Helvetica Neue', Helvetica, Arial-Unicode, Arial, Sans-serif">Created by haley hill</text><text x="0" y="120" fill="#000000" font-size="5px" font-weight="bold" font-family="'Helvetica Neue', Helvetica, Arial-Unicode, Arial, Sans-serif">from the Noun Project</text></svg>