<svg xmlns:dc="http://purl.org/dc/elements/1.1/" xmlns:cc="http://creativecommons.org/ns#" xmlns:rdf="http://www.w3.org/1999/02/22-rdf-syntax-ns#" xmlns:svg="http://www.w3.org/2000/svg" xmlns="http://www.w3.org/2000/svg" xmlns:sodipodi="http://sodipodi.sourceforge.net/DTD/sodipodi-0.dtd" xmlns:inkscape="http://www.inkscape.org/namespaces/inkscape" version="1.1" x="0px" y="0px" viewBox="0 0 100 125"><g transform="translate(0,-952.36218)"><path style="font-size:medium;font-style:normal;font-variant:normal;font-weight:normal;font-stretch:normal;text-indent:0;text-align:start;text-decoration:none;line-height:normal;letter-spacing:normal;word-spacing:normal;text-transform:none;direction:ltr;block-progression:tb;writing-mode:lr-tb;text-anchor:start;baseline-shift:baseline;opacity:1;color:#000000;fill:#000000;fill-opacity:1;stroke:none;stroke-width:4;marker:none;visibility:visible;display:inline;overflow:visible;enable-background:accumulate;font-family:Sans;-inkscape-font-specification:Sans" d="M 18 38 C 11.396274 38 6 43.39625 6 50 C 6 56.6037 11.396264 62 18 62 C 24.603745 62 30 56.6037 30 50 C 30 43.39625 24.603736 38 18 38 z M 50 38 C 43.396264 38 38 43.39625 38 50 C 38 56.6037 43.396255 62 50 62 C 56.603736 62 62 56.6037 62 50 C 62 43.39625 56.603726 38 50 38 z M 82 38 C 75.396264 38 70 43.39625 70 50 C 70 56.6037 75.396255 62 82 62 C 84.73003 62 87.2627 61.07555 89.28125 59.53125 A 2.0062979 2.0062979 0 1 0 86.84375 56.34375 C 85.495696 57.37505 83.8363 58 82 58 C 77.558035 58 74 54.4419 74 50 C 74 45.55801 77.558026 42 82 42 C 86.44196 42 90 45.55801 90 50 A 2.0002 2.0002 0 1 0 94 50 C 94 43.39625 88.603726 38 82 38 z M 18 42 C 22.441974 42 26 45.55801 26 50 C 26 54.4419 22.441965 58 18 58 C 13.55805 58 10 54.4419 10 50 C 10 45.55801 13.55804 42 18 42 z M 50 42 C 54.44196 42 58 45.55801 58 50 C 58 54.4419 54.44195 58 50 58 C 45.558035 58 42 54.4419 42 50 C 42 45.55801 45.558026 42 50 42 z " transform="translate(0,952.36218)"/></g><text x="0" y="115" fill="#000000" font-size="5px" font-weight="bold" font-family="'Helvetica Neue', Helvetica, Arial-Unicode, Arial, Sans-serif">Created by pictohaven</text><text x="0" y="120" fill="#000000" font-size="5px" font-weight="bold" font-family="'Helvetica Neue', Helvetica, Arial-Unicode, Arial, Sans-serif">from the Noun Project</text></svg>