<svg xmlns="http://www.w3.org/2000/svg" viewBox="0 0 52 110" x="0px" y="0px"><title>locator_1</title><g data-name="Layer 2"><g><path d="M51.92,23.89A26.07,26.07,0,0,0,27.72.06,25.75,25.75,0,0,0,8.22,7,26.11,26.11,0,0,0,0,26,25.5,25.5,0,0,0,2.35,36.78L23.27,86.24a3,3,0,0,0,5.48,0L49.62,36.84A25.8,25.8,0,0,0,52,26C52,25.27,52,24.58,51.92,23.89ZM26,14A12,12,0,1,1,14,26,12,12,0,0,1,26,14Z"/></g></g><text x="0" y="103" fill="#000000" font-size="5px" font-weight="bold" font-family="'Helvetica Neue', Helvetica, Arial-Unicode, Arial, Sans-serif">Created by Vigneshwaran</text><text x="0" y="108" fill="#000000" font-size="5px" font-weight="bold" font-family="'Helvetica Neue', Helvetica, Arial-Unicode, Arial, Sans-serif">from the Noun Project</text></svg>