<svg xmlns="http://www.w3.org/2000/svg" xmlns:xlink="http://www.w3.org/1999/xlink" version="1.1" x="0px" y="0px" viewBox="0 0 100 125" style="enable-background:new 0 0 100 100;" xml:space="preserve"><path d="M78.414,75.586L63.896,61.068C67.079,57.251,69,52.347,69,47c0-12.131-9.869-22-22-22s-22,9.869-22,22  s9.869,22,22,22c5.347,0,10.251-1.921,14.068-5.104l14.518,14.518C75.977,78.805,76.488,79,77,79s1.023-0.195,1.414-0.586  C79.195,77.633,79.195,76.367,78.414,75.586z M29,47c0-9.925,8.074-18,18-18s18,8.075,18,18s-8.074,18-18,18S29,56.925,29,47z"/><text x="0" y="115" fill="#000000" font-size="5px" font-weight="bold" font-family="'Helvetica Neue', Helvetica, Arial-Unicode, Arial, Sans-serif">Created by Tamzid Hasan</text><text x="0" y="120" fill="#000000" font-size="5px" font-weight="bold" font-family="'Helvetica Neue', Helvetica, Arial-Unicode, Arial, Sans-serif">from the Noun Project</text></svg>