<svg xmlns:dc="http://purl.org/dc/elements/1.1/" xmlns:cc="http://creativecommons.org/ns#" xmlns:rdf="http://www.w3.org/1999/02/22-rdf-syntax-ns#" xmlns:svg="http://www.w3.org/2000/svg" xmlns="http://www.w3.org/2000/svg" xmlns:sodipodi="http://sodipodi.sourceforge.net/DTD/sodipodi-0.dtd" xmlns:inkscape="http://www.inkscape.org/namespaces/inkscape" version="1.1" x="0px" y="0px" viewBox="0 0 100 125"><g transform="translate(0,-952.36218)"><path d="M 27.7812,980.58092 C 15.8106,980.58092 6,990.38125 6,1002.3621 c 0,11.9809 9.8106,21.7813 21.7812,21.7813 l 44.4376,0 c 11.9797,0 21.7812,-9.8016 21.7812,-21.7813 0,-11.97965 -9.8015,-21.78118 -21.7812,-21.78118 l -44.4376,0 z m 44.875,7.81253 c 7.6912,0 14,6.2672 14,13.96865 0,7.6932 -6.3067,14 -14,14 -7.7016,0 -13.9687,-6.3088 -13.9687,-14 0,-7.69945 6.2692,-13.96865 13.9687,-13.96865 z" style="text-indent:0;text-transform:none;direction:ltr;block-progression:tb;baseline-shift:baseline;color:#000000;enable-background:accumulate;" fill="#000000" fill-opacity="1" fill-rule="evenodd" stroke="none" marker="none" visibility="visible" display="inline" overflow="visible"/></g><text x="0" y="115" fill="#000000" font-size="5px" font-weight="bold" font-family="'Helvetica Neue', Helvetica, Arial-Unicode, Arial, Sans-serif">Created by andriwidodo</text><text x="0" y="120" fill="#000000" font-size="5px" font-weight="bold" font-family="'Helvetica Neue', Helvetica, Arial-Unicode, Arial, Sans-serif">from the Noun Project</text></svg>