<svg xmlns="http://www.w3.org/2000/svg" xmlns:xlink="http://www.w3.org/1999/xlink" xml:space="preserve" version="1.1" style="shape-rendering:geometricPrecision;text-rendering:geometricPrecision;image-rendering:optimizeQuality;" viewBox="0 0 222 300" x="0px" y="0px" fill-rule="evenodd" clip-rule="evenodd"><defs><style type="text/css">
   
    .fil0 {fill:black}
   
  </style></defs><g><path class="fil0" d="M0 221l0 -110c0,-5 2,-10 5,-13l93 -93c7,-7 19,-7 26,0 31,31 62,62 93,93 4,3 5,8 5,13l0 110c0,11 -8,19 -18,19l-44 0c-10,0 -19,-8 -19,-19l0 -46c0,-10 -8,-19 -18,-19l-24 0c-10,0 -18,9 -18,19l0 46c0,11 -8,19 -19,19l-43 0c-11,0 -19,-8 -19,-19z"/></g><text x="0" y="255" fill="#000000" font-size="5px" font-weight="bold" font-family="'Helvetica Neue', Helvetica, Arial-Unicode, Arial, Sans-serif">Created by Saifurrijal</text><text x="0" y="260" fill="#000000" font-size="5px" font-weight="bold" font-family="'Helvetica Neue', Helvetica, Arial-Unicode, Arial, Sans-serif">from the Noun Project</text></svg>