<svg xmlns="http://www.w3.org/2000/svg" xmlns:xlink="http://www.w3.org/1999/xlink" version="1.1" x="0px" y="0px" viewBox="0 0 96 120" enable-background="new 0 0 96 96" xml:space="preserve"><path d="M28.44,42h39.785c0.027,0,0.051,0,0.08,0c1.1,0,2-0.9,2-2c0-0.556-0.225-1.056-0.584-1.416L50.072,4.544  c-0.36-0.612-1.016-1-1.736-1c-0.72,0-1.376,0.388-1.732,1L26.708,39c-0.356,0.616-0.356,1.384,0,2S27.728,42,28.44,42z"/><path d="M68.229,54H28.444c-0.716,0-1.376,0.384-1.732,1s-0.356,1.384,0,2l19.896,34.452c0.356,0.612,1.016,1,1.732,1  c0.717,0,1.376-0.388,1.732-1L69.968,57c0.356-0.616,0.356-1.384,0-2S68.939,54,68.229,54z"/><path d="M80,46H16c-1.104,0-2,0.9-2,2c0,1.1,0.896,2,2,2h64c1.1,0,2-0.9,2-2C82,46.9,81.1,46,80,46z"/><text x="0" y="111" fill="#000000" font-size="5px" font-weight="bold" font-family="'Helvetica Neue', Helvetica, Arial-Unicode, Arial, Sans-serif">Created by iconsmind.com</text><text x="0" y="116" fill="#000000" font-size="5px" font-weight="bold" font-family="'Helvetica Neue', Helvetica, Arial-Unicode, Arial, Sans-serif">from the Noun Project</text></svg>